<?xml version="1.0" encoding="utf-8"?>
<!-- Generator: Adobe Illustrator 23.0.1, SVG Export Plug-In . SVG Version: 6.00 Build 0)  -->
<svg version="1.1" id="Layer_1" xmlns="http://www.w3.org/2000/svg" xmlns:xlink="http://www.w3.org/1999/xlink" x="0px" y="0px"
	 viewBox="0 0 1000 1000" style="enable-background:new 0 0 1000 1000;" xml:space="preserve">
<style type="text/css">
	.st0{fill:#728E9B;}
	.st1{fill:#B9C6CC;}
</style>
<g>
	<path class="st0" d="M486.3,939.5c-84.6,0-165.8-33.6-225.7-93.5c-59.8-59.9-93.4-141-93.5-225.7c0-151.7,118.9-297.2,200.2-403.4
		c44-57.1,82.7-118,115.7-182c0.6-1.3,1.9-2,3.3-2c1.4,0,2.7,0.8,3.3,2c33,64,71.7,125,115.7,182
		c81.3,106.1,200.2,251.5,200.2,403.4H610.8c-4.1,0-7.5,3.4-7.5,7.5v109.5H493.9c-4.1,0-7.5,3.4-7.5,7.5L486.3,939.5L486.3,939.5z
		 M611.4,862V758h-96.8c-2,0-3.9,0.8-5.3,2.2c-1.4,1.4-2.2,3.3-2.2,5.3v96.7L611.4,862z M506.8,965.9c35.6-0.7,70.9-7.5,104.2-20.1
		v-52.5h-96.8c-2,0-3.9,0.8-5.3,2.2c-1.4,1.4-2.2,3.3-2.2,5.3L506.8,965.9z M728,745.1V640.9h-96.7c-4.1,0-7.5,3.4-7.5,7.5v96.7
		L728,745.1L728,745.1z M740.5,874.6l0.1-0.1c4.1-4.1,6.3-9.7,6.2-15.5v-82.4H642.6v104.2H725C730.8,880.9,736.3,878.7,740.5,874.6
		L740.5,874.6z M649.7,967c27.9-11.9,53.8-27.9,77.1-47.4h-77.1V967z M812,745.1c12.6-33.4,19.5-68.6,20.4-104.2h-72.5v104.2H812z
		 M785.5,860.8c19.5-23.2,35.4-49.2,47.3-77.1h-47.3V860.8z"/>
	<path class="st1" d="M416.1,187.5l-17.6,24.8l-57.6,76.2c7.8,1.1,15.3,2.2,22.7,3.5l47.9-81l12.8-23.1c3.4-6-4.5-5.4-8.1-0.3
		L416.1,187.5z M340,332.1l8.6-14.9l-26.3-4.7c-27.3,36.6-52.3,74.9-74.7,114.7c-40.1,72.8-68,154.1-55.2,238
		c10.9,69.8,46.1,133.4,99.5,179.5c11.6,9.8,23.4,18.7,36.1,26.7c1.7,1,3.8,0.6,5-0.9c1.2-1.5,1.1-3.8-0.4-5.1
		c-41.3-39.9-71.1-90.2-86.3-145.6c-23.8-88.1-4.1-178.4,29.9-261c18.4-43.6,39.5-86,63.3-127L340,332.1z"/>
</g>
</svg>
